<?xml version="1.0" encoding="UTF-8" standalone="no"?>
<!-- Generator: Adobe Illustrator 16.0.0, SVG Export Plug-In . SVG Version: 6.00 Build 0)  -->

<svg
   xmlns:dc="http://purl.org/dc/elements/1.1/"
   xmlns:cc="http://creativecommons.org/ns#"
   xmlns:rdf="http://www.w3.org/1999/02/22-rdf-syntax-ns#"
   xmlns:svg="http://www.w3.org/2000/svg"
   xmlns="http://www.w3.org/2000/svg"
   xmlns:sodipodi="http://sodipodi.sourceforge.net/DTD/sodipodi-0.dtd"
   xmlns:inkscape="http://www.inkscape.org/namespaces/inkscape"
   version="1.1"
   id="Layer_1"
   x="0px"
   y="0px"
   width="1000"
   height="329.38901"
   viewBox="0 0 1000 329.38902"
   enable-background="new 0 0 1000.399 329.52"
   xml:space="preserve"
   inkscape:version="0.91 r13725"
   sodipodi:docname="Hulu (Print).svg"><metadata
   id="metadata9"><rdf:RDF><cc:Work
       rdf:about=""><dc:format>image/svg+xml</dc:format><dc:type
         rdf:resource="http://purl.org/dc/dcmitype/StillImage" /><dc:title></dc:title></cc:Work></rdf:RDF></metadata><defs
   id="defs7" /><sodipodi:namedview
   pagecolor="#ffffff"
   bordercolor="#666666"
   borderopacity="1"
   objecttolerance="10"
   gridtolerance="10"
   guidetolerance="10"
   inkscape:pageopacity="0"
   inkscape:pageshadow="2"
   inkscape:window-width="1366"
   inkscape:window-height="705"
   id="namedview5"
   showgrid="false"
   inkscape:zoom="0.59176389"
   inkscape:cx="568.62322"
   inkscape:cy="201.26943"
   inkscape:window-x="-8"
   inkscape:window-y="-8"
   inkscape:window-maximized="1"
   inkscape:current-layer="Layer_1" />
<path
   d="m 612.5196,329.388 79.43931,0 0,-329.38757054203 -79.43931,0 0,329.38757054203 z M 472.56145,235.68039 c 0,11.75631 -9.5242,21.27951 -21.26252,21.27951 l -46.20356,0 c -11.7883,0 -21.29551,-9.5232 -21.29551,-21.27951 0,-4.42923 0,-132.89997 0,-132.89997 l -79.42131,0 0,139.52833 c 0,57.02624 36.48045,87.07825 90.42592,87.07825 l 77.75598,0 0,-0.41583 c 49.68517,0 79.4363,-35.3479 79.4363,-86.66242 l 0,-139.52833 -79.4353,0 c 0,0 0,128.47174 0,132.89997 z M 920.58069,102.78042 c 0,0 0,128.47074 0,132.89997 0,11.75631 -9.5232,21.27951 -21.26252,21.27951 l -46.20456,0 c -11.77231,0 -21.27851,-9.5232 -21.27851,-21.27951 0,-4.42923 0,-132.89997 0,-132.89997 l -79.43731,0 0,139.52833 c 0,57.02624 36.47945,87.07825 90.42692,87.07825 l 77.75398,0 0,-0.41583 c 49.68517,0 79.42131,-35.3479 79.42131,-86.66242 l 0,-139.52833 -79.41931,0 z m -763.38841,0 c 0,0 -41.37549,0 -50.93268,0 -17.881863,0 -26.840288,4.82007 -26.840288,4.82007 l 0,-107.60006054203 -79.419312,0 L 0,329.389 l 79.420311,0 0,-132.91797 c 0,-11.75531 9.5242,-21.27951 21.278509,-21.27951 l 46.22056,0 c 11.75431,0 21.26252,9.5242 21.26252,21.27951 l 0,132.91797 79.4373,0 0,-143.20786 c 0,-60.22397 -40.15998,-83.40072 -90.42692,-83.40072 z"
   id="path3"
   style="fill:#000000"
   inkscape:connector-curvature="0" />
</svg>