<?xml version="1.0" encoding="UTF-8" standalone="no"?>
<!-- Created with Inkscape (http://www.inkscape.org/) -->

<svg
   version="1.1"
   id="svg1"
   width="146.72"
   height="67.41333"
   viewBox="0 0 146.72 67.41333"
   sodipodi:docname="Logo White_UniversalPM.eps"
   xmlns:inkscape="http://www.inkscape.org/namespaces/inkscape"
   xmlns:sodipodi="http://sodipodi.sourceforge.net/DTD/sodipodi-0.dtd"
   xmlns="http://www.w3.org/2000/svg"
   xmlns:svg="http://www.w3.org/2000/svg">
  <defs
     id="defs1" />
  <sodipodi:namedview
     id="namedview1"
     pagecolor="#ffffff"
     bordercolor="#000000"
     borderopacity="0.25"
     inkscape:showpageshadow="2"
     inkscape:pageopacity="0.0"
     inkscape:pagecheckerboard="0"
     inkscape:deskcolor="#d1d1d1">
    <inkscape:page
       x="0"
       y="0"
       inkscape:label="1"
       id="page1"
       width="146.72"
       height="67.41333"
       margin="0"
       bleed="0" />
  </sodipodi:namedview>
  <g
     id="g1"
     inkscape:groupmode="layer"
     inkscape:label="1">
    <g
       id="group-R5">
      <path
         id="path2"
         d="m 369.336,371.305 c 24.863,75.758 83.695,134.281 182.019,134.281 91.399,0 158.555,-59.324 182.915,-135.941 -25.415,71.406 -97.649,122.929 -182.778,122.929 -84.472,0 -156.242,-50.722 -182.156,-121.269 z m 364.519,-115.91 c -24.746,-75.95 -94.312,-135.043 -182.5,-135.043 -93.496,0 -156.367,58.3 -181.609,133.402 26.266,-69.965 97.715,-120.129 181.746,-120.129 84.692,0 156.606,50.957 182.363,121.77 v 0"
         style="fill:#ffffff;fill-opacity:1;fill-rule:evenodd;stroke:none"
         transform="matrix(0.13333333,0,0,-0.13333333,0,67.413333)" />
      <path
         id="path3"
         d="m 505.691,380.402 c -2.445,5.957 -2.289,15.618 2.95,24.543 3.3,5.582 12.043,8.055 19.683,5.118 8.567,6.66 10.61,-0.5 18.199,2.734 9.969,4.266 4.383,-11.281 14.036,-15.207 3.992,10.476 -9.094,18.344 -0.891,23.289 5.859,3.512 10.273,5.695 12.668,10.414 3.418,6.719 4.754,11.621 7.391,12.516 6.074,2.035 4.765,7.738 4.765,7.738 0,0 6.465,-1.879 11.492,2.781 -3.836,2.031 -9.441,3.797 -7.957,7.86 1.719,4.796 14.746,-4.95 18.594,2.91 -7.742,3.336 -15.644,10.55 -20.383,12.218 -3.242,-3.488 -5.269,-2.086 -9.453,1.184 -7.078,5.523 -7.676,0.266 -12.105,4.074 -3.539,-7.004 1.785,-6.441 3.425,-8.199 4.551,-4.91 -4.597,4.41 -3.718,-8.113 0.23,-3.242 -4.641,-3.848 -8.266,3.203 -1.894,3.672 -16.933,2.894 -19.203,6.406 2.07,4.082 19.781,18.633 46.969,15.137 -39.492,15.281 -92.852,-1.422 -93.391,-7.223 -5.316,-3.285 -3.484,-7.043 -6.141,-7.914 -4.585,-1.516 -9.613,-15.359 -9.613,-15.359 0,0 2.863,-1.883 -6.066,-11.731 -7.352,-8.117 -9.528,-20.41 -9.528,-20.41 0,0 4.86,-8.758 3.942,-18.855 -0.699,-7.7 -1.035,-1.985 2.371,-7.571 1.984,-3.269 4.148,-14.675 5.461,-10.226 2.516,8.492 -4.578,16.347 -3.406,24.785 0.261,-1.051 2.722,3.344 2.629,-0.641 -0.266,-10.418 13.035,-30.508 13.035,-30.508 0,0 -4.973,-4.964 0.218,-4.964 l 22.293,0.011 z m 82.961,-124.836 c 2.649,-1.054 5.957,-3.66 7.481,-7.636 3.601,-9.41 -1.746,-1.778 -1.746,-15.969 0,-13.063 -3.742,-10.945 -3.742,-10.945 0,0 -0.809,-15.438 -8.899,-24.911 -5.152,-5.109 -1.148,-9.328 -1.148,-9.328 0,0 -1.743,-0.957 -4.27,-12.156 -0.82,-3.625 3.887,-9.219 7.981,-7.824 3.054,1.047 -7.446,2.051 3.933,6.777 4.387,1.828 0.789,5.266 0.789,5.266 0,0 7.387,0.555 11.535,11.531 7.332,-1.055 4.61,3.379 19.707,6.582 4.004,0.86 4.844,2.031 4.344,5.742 -0.496,3.692 4.926,-0.535 19.895,14.493 11.797,11.871 7.539,14.542 15.691,18.847 8.606,4.528 9.406,-0.394 12.277,3.301 6.602,8.422 4.278,7.902 7.024,13.266 l 1.941,2.984 -92.793,-0.02 z M 555.234,390.02 c 1.172,1.73 4.715,0.578 7.227,0.511 3.398,-0.062 2.59,-4.992 7.246,-4.008 4.648,0.977 4.719,-4.363 11.356,-4.175 6.679,0.203 -1.329,-2.293 -1.329,-2.293 0,0 -4.121,1.957 -6.796,0.656 -1.395,-0.699 0.531,0.387 -1.825,2.297 -3.664,2.949 -3.175,-0.567 -9.316,4.59 -4.324,3.629 -8.488,-0.438 -6.563,2.422 v 0"
         style="fill:#ffffff;fill-opacity:1;fill-rule:evenodd;stroke:none"
         transform="matrix(0.13333333,0,0,-0.13333333,0,67.413333)" />
      <path
         id="path4"
         d="m 222.691,352.465 h -30 l 4.481,-5.258 v -38.793 c 0,-8.73 -5.859,-12.422 -14.609,-12.422 -8.754,0 -14.618,3.692 -14.618,12.422 v 38.793 l 4.477,5.258 h -29.981 l 4.473,-5.258 v -39.422 c 0,-19.371 10.996,-26.828 35.649,-26.828 24.644,0 35.644,7.457 35.644,26.828 v 39.422 l 4.484,5.258 v 0"
         style="fill:#ffffff;fill-opacity:1;fill-rule:nonzero;stroke:none"
         transform="matrix(0.13333333,0,0,-0.13333333,0,67.413333)" />
      <path
         id="path5"
         d="m 326.773,352.465 h -25.3 l 4.496,-5.258 v -35.328 l -36.285,40.586 h -22.735 l 4.492,-5.258 v -59.621 l -4.492,-5.262 h 25.281 l -4.472,5.262 v 35.957 l 38.527,-41.219 h 16.012 v 64.883 l 4.476,5.258 v 0"
         style="fill:#ffffff;fill-opacity:1;fill-rule:nonzero;stroke:none"
         transform="matrix(0.13333333,0,0,-0.13333333,0,67.413333)" />
      <path
         id="path6"
         d="m 385.051,282.324 -4.485,5.262 v 59.621 l 4.485,5.258 h -30.203 l 4.476,-5.258 v -59.621 l -4.476,-5.262 h 30.203 v 0"
         style="fill:#ffffff;fill-opacity:1;fill-rule:nonzero;stroke:none"
         transform="matrix(0.13333333,0,0,-0.13333333,0,67.413333)" />
      <path
         id="path7"
         d="m 484.641,352.465 h -25.403 l 4.485,-5.258 -17.93,-38.594 -17.285,38.594 4.484,5.258 h -29.89 l 33.191,-70.141 h 14.836 l 33.512,70.141 v 0"
         style="fill:#ffffff;fill-opacity:1;fill-rule:nonzero;stroke:none"
         transform="matrix(0.13333333,0,0,-0.13333333,0,67.413333)" />
      <path
         id="path8"
         d="m 569.434,282.324 v 19.028 l -5.332,-4.418 h -36.387 v 13.476 h 23.047 l 5.234,-4.43 v 22.829 l -5.234,-4.418 h -23.047 v 13.464 h 36.387 l 5.332,-4.417 v 19.027 h -67.008 l 4.484,-5.258 v -59.621 l -4.484,-5.262 h 67.008 v 0"
         style="fill:#ffffff;fill-opacity:1;fill-rule:nonzero;stroke:none"
         transform="matrix(0.13333333,0,0,-0.13333333,0,67.413333)" />
      <path
         id="path9"
         d="m 646.926,329.758 c 0,-5.051 -4.914,-9.156 -11.75,-9.156 h -13.543 v 17.253 h 16.109 c 4.68,0 9.184,-2.328 9.184,-8.097 z m 24.527,-47.434 -19.305,27.668 c 9.493,3.781 16.106,11.043 16.106,21.235 0,11.679 -7.258,21.238 -27.531,21.238 H 596.34 l 4.48,-5.258 v -59.621 l -4.48,-5.262 h 29.773 l -4.48,5.262 v 19.875 h 8.953 l 13.652,-19.875 -4.472,-5.262 h 31.687 v 0"
         style="fill:#ffffff;fill-opacity:1;fill-rule:evenodd;stroke:none"
         transform="matrix(0.13333333,0,0,-0.13333333,0,67.413333)" />
      <path
         id="path10"
         d="m 761.609,302.824 c 0,11.153 -9.082,17.356 -22.207,21.567 -8.535,2.617 -20.586,4.511 -20.586,10.097 0,2.735 3.293,4.629 9.067,4.629 7.691,0 20.269,-3.16 30.086,-7.781 v 23.441 l -5.645,-5.363 c -5.984,2.422 -16.34,4.941 -23.476,4.941 -24.219,0 -32.024,-10.507 -32.024,-20.085 0,-13.036 8.75,-18.719 22.524,-23.45 10.23,-3.472 19.734,-3.789 19.734,-9.558 0,-4.957 -5.859,-5.586 -8.848,-5.586 -7.578,0 -21.035,2.64 -32.976,10.304 v -25.968 l 5.664,6.101 c 5.547,-2.117 18.023,-5.679 28.269,-5.679 21.016,0 30.418,9.152 30.418,22.39 v 0"
         style="fill:#ffffff;fill-opacity:1;fill-rule:nonzero;stroke:none"
         transform="matrix(0.13333333,0,0,-0.13333333,0,67.413333)" />
      <path
         id="path11"
         d="m 833.789,307.559 h -23.586 l 11.75,25.132 11.836,-25.132 z m 34.258,-25.235 -35,70.141 h -24.016 l 2.563,-5.258 -31.699,-64.883 h 26.152 l -4.484,5.262 3.515,7.352 h 33.938 l 3.418,-7.352 -4.485,-5.262 h 30.098 v 0"
         style="fill:#ffffff;fill-opacity:1;fill-rule:evenodd;stroke:none"
         transform="matrix(0.13333333,0,0,-0.13333333,0,67.413333)" />
      <path
         id="path12"
         d="m 952.371,282.324 v 19.028 l -5.328,-4.418 h -34.262 v 50.273 l 4.477,5.258 h -29.77 l 4.477,-5.258 v -59.621 l -4.477,-5.262 h 64.883 v 0"
         style="fill:#ffffff;fill-opacity:1;fill-rule:nonzero;stroke:none"
         transform="matrix(0.13333333,0,0,-0.13333333,0,67.413333)" />
      <path
         id="path13"
         d="m 932.434,342.746 c 0,5.41 4.453,9.789 9.929,9.789 5.496,0 9.942,-4.379 9.942,-9.789 0,-5.418 -4.446,-9.805 -9.942,-9.805 -5.476,0 -9.929,4.387 -9.929,9.805 z m 0.933,0 c 0,-4.914 4.028,-8.867 8.996,-8.867 4.989,0 9.016,3.953 9.016,8.867 0,4.902 -4.027,8.875 -9.016,8.875 -4.968,0 -8.996,-3.973 -8.996,-8.875 v 0"
         style="fill:#ffffff;fill-opacity:1;fill-rule:nonzero;stroke:none"
         transform="matrix(0.13333333,0,0,-0.13333333,0,67.413333)" />
      <path
         id="path14"
         d="m 946.113,346.574 c -0.984,0.821 -2.16,1.199 -3.437,1.199 -2.918,0 -5.11,-2.242 -5.11,-5.058 0,-2.84 2.153,-5.102 5.079,-5.102 1.332,0 2.597,0.473 3.605,1.344 v 1.297 c -0.906,-1.074 -2.234,-1.758 -3.645,-1.758 -2.332,0 -4.058,2.008 -4.058,4.219 0,2.219 1.734,4.176 4.082,4.176 1.402,0 2.547,-0.567 3.484,-1.578 v 1.261 0"
         style="fill:#ffffff;fill-opacity:1;fill-rule:evenodd;stroke:none"
         transform="matrix(0.13333333,0,0,-0.13333333,0,67.413333)" />
      <path
         id="path15"
         d="m 44.1758,40.4805 -2.457,-2.9414 V 15.5273 c 0,-5.371 -1.5586,-9.20699 -4.6719,-11.52339 C 33.9336,1.69141 28.9453,0.539063 22.0938,0.539063 15.2383,0.539063 10.2813,1.67188 7.22266,3.94531 4.05078,6.30078 2.46484,10.1563 2.46484,15.5273 V 37.5391 L 0,40.4805 h 16.5078 l -2.4687,-2.9414 v -21.668 c 0,-4.6289 2.6875,-6.94532 8.0547,-6.94532 5.3671,0 8.0468,2.31642 8.0468,6.94532 v 21.668 l -2.4687,2.9414 h 16.5039"
         style="fill:#ffffff;fill-opacity:1;fill-rule:nonzero;stroke:none"
         transform="matrix(0.13333333,0,0,-0.13333333,0,67.413333)" />
      <path
         id="path16"
         d="M 94.5898,40.4805 92.1172,37.5391 V 1.30078 H 83.3438 L 62.0938,24.3555 V 4.23828 l 2.4765,-2.9375 H 50.6445 l 2.4649,2.9375 V 37.5391 l -2.4649,2.9414 H 63.1602 L 83.1328,17.793 v 19.7461 l -2.4726,2.9414 h 13.9296"
         style="fill:#ffffff;fill-opacity:1;fill-rule:nonzero;stroke:none"
         transform="matrix(0.13333333,0,0,-0.13333333,0,67.413333)" />
      <path
         id="path17"
         d="m 119.727,1.30078 h -16.618 l 2.461,2.9375 V 37.5391 l -2.461,2.9414 h 16.618 l -2.461,-2.9414 V 4.23828 l 2.461,-2.9375"
         style="fill:#ffffff;fill-opacity:1;fill-rule:nonzero;stroke:none"
         transform="matrix(0.13333333,0,0,-0.13333333,0,67.413333)" />
      <path
         id="path18"
         d="M 167.844,40.4805 149.398,1.30078 h -8.164 L 122.961,40.4805 h 16.453 l -2.473,-2.9297 9.512,-21.543 9.887,21.5313 -2.473,2.9414 h 13.977"
         style="fill:#ffffff;fill-opacity:1;fill-rule:nonzero;stroke:none"
         transform="matrix(0.13333333,0,0,-0.13333333,0,67.413333)" />
      <path
         id="path19"
         d="m 207.68,1.30078 h -36.895 l 2.469,2.9375 V 37.5391 l -2.469,2.9414 h 36.895 v -10.625 l -2.934,2.4609 h -20.035 v -7.5195 h 12.691 l 2.875,2.4687 V 14.5117 l -2.875,2.461 H 184.711 V 9.47266 h 20.035 l 2.934,2.46094 V 1.30078"
         style="fill:#ffffff;fill-opacity:1;fill-rule:nonzero;stroke:none"
         transform="matrix(0.13333333,0,0,-0.13333333,0,67.413333)" />
      <path
         id="path20"
         d="m 243.457,27.793 c 0,3.0195 -1.68,4.5234 -5.055,4.5234 h -8.867 v -9.6289 h 7.461 c 1.883,0 3.434,0.4883 4.637,1.4531 1.215,0.9961 1.824,2.2188 1.824,3.6524 z M 256.973,1.30078 h -17.446 l 2.446,2.92969 -7.504,11.11333 h -4.934 V 4.23828 l 2.473,-2.9375 h -16.399 l 2.473,2.9375 V 37.5391 l -2.473,2.9414 h 24.442 c 5.254,0 9.168,-1.1446 11.758,-3.4688 2.261,-2.0312 3.394,-4.832 3.394,-8.3984 0,-5.5156 -2.957,-9.4805 -8.863,-11.8633 L 256.973,1.30078"
         style="fill:#ffffff;fill-opacity:1;fill-rule:nonzero;stroke:none"
         transform="matrix(0.13333333,0,0,-0.13333333,0,67.413333)" />
      <path
         id="path21"
         d="m 299.68,12.7656 c 0,-3.84763 -1.352,-6.85544 -4.055,-9.05466 -2.895,-2.32422 -7.125,-3.464846 -12.691,-3.464846 -4.887,0 -10.082,1.054686 -15.567,3.152346 L 264.254,0 v 14.5117 c 3.016,-1.9609 6.344,-3.4375 9.984,-4.4609 3.02,-0.85939 5.739,-1.3008 8.168,-1.3008 3.246,0 4.879,1.04688 4.879,3.125 0,1.3203 -1.113,2.3828 -3.351,3.1641 -2.504,0.7539 -5.008,1.4765 -7.52,2.1875 -4.184,1.4375 -7.203,3.0468 -9.047,4.8164 -2.23,2.0976 -3.347,4.8633 -3.347,8.2812 0,3.086 1.269,5.6328 3.816,7.625 3.098,2.3946 7.695,3.586 13.812,3.586 4.067,0 8.372,-0.918 12.922,-2.7539 l 3.114,2.996 V 28.6641 c -2.668,1.3086 -5.555,2.3515 -8.668,3.164 -3.114,0.7891 -5.75,1.1914 -7.899,1.1914 -3.328,0 -4.996,-0.8515 -4.996,-2.5781 0,-1.3281 1.313,-2.4805 3.934,-3.4101 2.465,-0.75 4.933,-1.4922 7.406,-2.2344 8.148,-2.6289 12.219,-6.6328 12.219,-12.0313"
         style="fill:#ffffff;fill-opacity:1;fill-rule:nonzero;stroke:none"
         transform="matrix(0.13333333,0,0,-0.13333333,0,67.413333)" />
      <path
         id="path22"
         d="m 332.582,15.4023 -6.535,14.0625 -6.442,-14.0625 z M 351.441,1.30078 h -16.57 l 2.465,2.9375 -1.883,4.1211 h -18.652 l -1.973,-4.10157 2.473,-2.95703 H 302.91 l 17.449,36.23832 -1.406,2.9414 h 13.215 L 351.441,1.30078"
         style="fill:#ffffff;fill-opacity:1;fill-rule:nonzero;stroke:none"
         transform="matrix(0.13333333,0,0,-0.13333333,0,67.413333)" />
      <path
         id="path23"
         d="m 390.977,1.30078 h -35.723 l 2.469,2.9375 V 37.5391 l -2.469,2.9414 h 16.394 L 369.18,37.5391 V 9.47266 h 18.855 l 2.942,2.46094 V 1.30078"
         style="fill:#ffffff;fill-opacity:1;fill-rule:nonzero;stroke:none"
         transform="matrix(0.13333333,0,0,-0.13333333,0,67.413333)" />
      <path
         id="path24"
         d="m 446.16,26.7969 c 0,3.6836 -2.387,5.5273 -7.168,5.5273 H 432.41 V 20.4609 h 5.52 c 2.832,0 4.863,0.4375 6.113,1.2969 1.41,0.9766 2.117,2.668 2.117,5.0391 z m 11.926,0.7148 c 0,-9.875 -6.289,-14.7969 -18.863,-14.7969 H 432.41 V 4.25 l 2.477,-2.94141 H 418.48 L 420.961,4.25 v 33.3008 l -2.481,2.9375 h 21.098 c 4.973,0 9.031,-0.8008 12.164,-2.4024 4.231,-2.1953 6.344,-5.7226 6.344,-10.5742"
         style="fill:#ffffff;fill-opacity:1;fill-rule:nonzero;stroke:none"
         transform="matrix(0.13333333,0,0,-0.13333333,0,67.413333)" />
      <path
         id="path25"
         d="m 490.93,27.8047 c 0,3.0156 -1.684,4.5195 -5.055,4.5195 h -8.863 v -9.6289 h 7.453 c 1.879,0 3.43,0.4883 4.64,1.457 1.208,0.9844 1.825,2.2149 1.825,3.6524 z M 504.438,1.30859 h -17.45 l 2.461,2.92969 -7.515,11.11332 h -4.922 V 4.25 l 2.457,-2.94141 H 463.082 L 465.543,4.25 v 33.3008 l -2.461,2.9375 h 24.441 c 5.247,0 9.153,-1.1406 11.754,-3.4649 2.262,-2.0312 3.399,-4.8359 3.399,-8.3984 0,-5.5195 -2.965,-9.4844 -8.871,-11.8672 L 504.438,1.30859"
         style="fill:#ffffff;fill-opacity:1;fill-rule:nonzero;stroke:none"
         transform="matrix(0.13333333,0,0,-0.13333333,0,67.413333)" />
      <path
         id="path26"
         d="m 542.738,20.9297 c 0,8.0742 -3.429,12.0976 -10.277,12.0976 -6.898,0 -10.344,-4.0234 -10.344,-12.0976 0,-8.1055 3.446,-12.16017 10.344,-12.16017 6.848,0 10.277,4.05467 10.277,12.16017 z m 12.289,0 c 0,-6.8945 -2.375,-12.18751 -7.105,-15.85939 -4.121,-3.17578 -9.274,-4.765622 -15.461,-4.765622 -6.231,0 -11.371,1.589842 -15.449,4.765622 -4.824,3.67188 -7.223,8.96489 -7.223,15.85939 0,6.8945 2.399,12.1758 7.223,15.8594 4.078,3.1445 9.218,4.6953 15.449,4.6953 6.187,0 11.34,-1.5508 15.461,-4.6953 4.73,-3.6836 7.105,-8.9649 7.105,-15.8594"
         style="fill:#ffffff;fill-opacity:1;fill-rule:nonzero;stroke:none"
         transform="matrix(0.13333333,0,0,-0.13333333,0,67.413333)" />
      <path
         id="path27"
         d="m 590.625,21.3984 c 0,4.1875 -0.762,7.0704 -2.344,8.6016 -1.57,1.5547 -4.336,2.3242 -8.301,2.3242 h -5.039 V 9.48438 h 5.262 c 4.113,0 6.867,0.82032 8.281,2.48042 1.438,1.668 2.141,4.8047 2.141,9.4336 z m 12.09,-0.3515 c 0,-8.7813 -3.125,-14.62893 -9.445,-17.57815 -3.125,-1.4375 -7.793,-2.16016 -13.969,-2.16016 H 561.184 L 563.477,4.25 v 33.3008 l -2.469,2.9375 h 18.293 c 7.183,0 12.465,-0.9766 15.844,-2.9375 5.05,-2.9297 7.57,-8.4297 7.57,-16.5039"
         style="fill:#ffffff;fill-opacity:1;fill-rule:nonzero;stroke:none"
         transform="matrix(0.13333333,0,0,-0.13333333,0,67.413333)" />
      <path
         id="path28"
         d="m 651.328,40.4883 -2.48,-2.9375 V 15.5273 c 0,-5.3593 -1.551,-9.19917 -4.668,-11.51167 -3.125,-2.32422 -8.094,-3.468755 -14.961,-3.468755 -6.828,0 -11.809,1.132815 -14.844,3.410155 -3.191,2.35156 -4.766,6.21097 -4.766,11.57027 v 22.0235 l -2.468,2.9375 h 16.511 l -2.48,-2.9375 V 15.8789 c 0,-4.6367 2.695,-6.93359 8.047,-6.93359 5.371,0 8.066,2.29689 8.066,6.93359 v 21.6719 l -2.461,2.9375 h 16.504"
         style="fill:#ffffff;fill-opacity:1;fill-rule:nonzero;stroke:none"
         transform="matrix(0.13333333,0,0,-0.13333333,0,67.413333)" />
      <path
         id="path29"
         d="m 691.504,4.12109 c -1.531,-0.89843 -3.723,-1.69921 -6.594,-2.40234 -3.125,-0.78125 -6.043,-1.171875 -8.797,-1.171875 -6.504,0 -11.777,1.593755 -15.8,4.746095 -4.583,3.61328 -6.883,8.82813 -6.883,15.63673 0,5.9453 2.008,10.7695 6.004,14.4609 4.179,3.918 9.914,5.8711 17.16,5.8711 4.453,0 8.504,-0.7226 12.168,-2.1211 l 2.683,2.5899 V 28.6719 c -4.55,2.7344 -9.277,4.1328 -14.218,4.1328 -3.875,0 -6.829,-1.1719 -8.868,-3.5274 -1.765,-2.1171 -2.656,-4.8828 -2.656,-8.3476 0,-3.5664 1.094,-6.4375 3.262,-8.6328 2.195,-2.1875 5.066,-3.28127 8.625,-3.28127 4.539,0 9.187,1.41407 13.914,4.26567 V 4.12109"
         style="fill:#ffffff;fill-opacity:1;fill-rule:nonzero;stroke:none"
         transform="matrix(0.13333333,0,0,-0.13333333,0,67.413333)" />
      <path
         id="path30"
         d="m 733.281,29.8633 -2.883,2.4609 H 719.695 V 4.25 L 722.18,1.30859 H 705.781 L 708.254,4.25 v 28.0742 h -10.695 l -2.879,-2.4609 v 10.625 h 38.601 v -10.625"
         style="fill:#ffffff;fill-opacity:1;fill-rule:nonzero;stroke:none"
         transform="matrix(0.13333333,0,0,-0.13333333,0,67.413333)" />
      <path
         id="path31"
         d="M 754.902,1.30859 H 738.27 L 740.723,4.25 v 33.3008 l -2.453,2.9375 h 16.632 L 752.41,37.5508 V 4.25 l 2.492,-2.94141"
         style="fill:#ffffff;fill-opacity:1;fill-rule:nonzero;stroke:none"
         transform="matrix(0.13333333,0,0,-0.13333333,0,67.413333)" />
      <path
         id="path32"
         d="m 794.082,20.9297 c 0,8.0742 -3.43,12.0976 -10.273,12.0976 -6.914,0 -10.352,-4.0234 -10.352,-12.0976 0,-8.1055 3.438,-12.16017 10.352,-12.16017 6.843,0 10.273,4.05467 10.273,12.16017 z m 12.273,0 c 0,-6.8945 -2.363,-12.18751 -7.085,-15.85939 -4.133,-3.17578 -9.29,-4.765622 -15.461,-4.765622 -6.231,0 -11.399,1.589842 -15.469,4.765622 -4.817,3.67188 -7.227,8.96489 -7.227,15.85939 0,6.8945 2.41,12.1758 7.227,15.8594 4.07,3.1445 9.238,4.6953 15.469,4.6953 6.171,0 11.328,-1.5508 15.461,-4.6953 4.722,-3.6836 7.085,-8.9649 7.085,-15.8594"
         style="fill:#ffffff;fill-opacity:1;fill-rule:nonzero;stroke:none"
         transform="matrix(0.13333333,0,0,-0.13333333,0,67.413333)" />
      <path
         id="path33"
         d="m 856.301,40.4883 -2.485,-2.9375 V 1.30859 h -8.777 L 823.809,24.375 V 4.25 l 2.48,-2.94141 H 812.336 L 814.813,4.25 v 33.3008 l -2.477,2.9375 h 12.527 l 19.961,-22.6758 v 19.7383 l -2.461,2.9375 h 13.938"
         style="fill:#ffffff;fill-opacity:1;fill-rule:nonzero;stroke:none"
         transform="matrix(0.13333333,0,0,-0.13333333,0,67.413333)" />
      <path
         id="path34"
         d="M 939.133,1.30859 H 923.074 L 925.559,4.25 V 23.0586 L 915.176,1.30859 h -5.481 L 897.938,23.3906 V 4.25 L 900.41,1.30859 H 886.855 L 889.309,4.25 v 33.3008 l -2.454,2.9375 h 13.77 l 12.766,-23.9649 11.675,23.9649 h 14.067 l -2.461,-2.9375 V 4.25 l 2.461,-2.94141"
         style="fill:#ffffff;fill-opacity:1;fill-rule:nonzero;stroke:none"
         transform="matrix(0.13333333,0,0,-0.13333333,0,67.413333)" />
      <path
         id="path35"
         d="m 989.773,40.4883 -2.46,-2.9375 V 15.5273 c 0,-5.3593 -1.559,-9.19917 -4.657,-11.51167 -3.125,-2.32422 -8.125,-3.468755 -14.953,-3.468755 -6.883,0 -11.824,1.132815 -14.883,3.410155 -3.172,2.35156 -4.754,6.21097 -4.754,11.57027 v 22.0235 l -2.48,2.9375 h 16.516 l -2.461,-2.9375 V 15.8789 c 0,-4.6367 2.664,-6.93359 8.062,-6.93359 5.344,0 8.027,2.29689 8.027,6.93359 v 21.6719 l -2.476,2.9375 h 16.519"
         style="fill:#ffffff;fill-opacity:1;fill-rule:nonzero;stroke:none"
         transform="matrix(0.13333333,0,0,-0.13333333,0,67.413333)" />
      <path
         id="path36"
         d="m 1031.32,12.7734 c 0,-3.85543 -1.38,-6.86324 -4.06,-9.05074 -2.9,-2.32422 -7.14,-3.476566 -12.7,-3.476566 -4.89,0 -10.08,1.062496 -15.544,3.164066 L 995.867,0.0117188 V 14.5234 c 3.02,-1.9648 6.373,-3.4375 10.003,-4.4648 3.01,-0.85938 5.73,-1.28907 8.18,-1.28907 3.24,0 4.85,1.02735 4.85,3.10547 0,1.3281 -1.09,2.3828 -3.32,3.1758 -2.52,0.75 -5.02,1.4726 -7.52,2.1875 -4.19,1.4336 -7.21,3.0469 -9.044,4.8125 -2.258,2.1015 -3.364,4.8633 -3.364,8.2812 0,3.086 1.274,5.6368 3.813,7.6368 3.095,2.3828 7.695,3.5742 13.815,3.5742 4.07,0 8.37,-0.918 12.91,-2.7539 l 3.12,3 V 28.6719 c -2.66,1.3008 -5.53,2.3554 -8.68,3.164 -3.09,0.793 -5.74,1.1914 -7.89,1.1914 -3.32,0 -5,-0.8476 -5,-2.5781 0,-1.3281 1.32,-2.4804 3.95,-3.4062 2.46,-0.7539 4.92,-1.4961 7.39,-2.2383 8.16,-2.625 12.24,-6.6289 12.24,-12.0313"
         style="fill:#ffffff;fill-opacity:1;fill-rule:nonzero;stroke:none"
         transform="matrix(0.13333333,0,0,-0.13333333,0,67.413333)" />
      <path
         id="path37"
         d="m 1055.87,1.30859 h -16.64 l 2.48,2.94141 v 33.3008 l -2.48,2.9375 h 16.64 l -2.47,-2.9375 V 4.25 l 2.47,-2.94141"
         style="fill:#ffffff;fill-opacity:1;fill-rule:nonzero;stroke:none"
         transform="matrix(0.13333333,0,0,-0.13333333,0,67.413333)" />
      <path
         id="path38"
         d="m 1100.45,4.12109 c -1.49,-0.89843 -3.72,-1.69921 -6.56,-2.40234 -3.15,-0.78125 -6.08,-1.171875 -8.83,-1.171875 -6.49,0 -11.76,1.593755 -15.79,4.746095 -4.59,3.61328 -6.9,8.82813 -6.9,15.63673 0,5.9453 1.99,10.7695 6.03,14.4609 4.16,3.918 9.89,5.8711 17.12,5.8711 4.48,0 8.52,-0.7226 12.17,-2.1211 l 2.7,2.5899 V 28.6719 c -4.55,2.7344 -9.27,4.1328 -14.22,4.1328 -3.88,0 -6.83,-1.1719 -8.86,-3.5274 -1.74,-2.1171 -2.64,-4.8828 -2.64,-8.3476 0,-3.5664 1.08,-6.4375 3.26,-8.6328 2.16,-2.1875 5.05,-3.28127 8.6,-3.28127 4.55,0 9.17,1.41407 13.92,4.26567 V 4.12109"
         style="fill:#ffffff;fill-opacity:1;fill-rule:nonzero;stroke:none"
         transform="matrix(0.13333333,0,0,-0.13333333,0,67.413333)" />
    </g>
  </g>
</svg>
