<svg xmlns="http://www.w3.org/2000/svg" width="2732" height="700" viewBox="0 0 2732 700" version="1.1"><path d="M 728.500 65.568 C 694.378 70.116, 676.460 74.420, 653.448 83.598 C 589.086 109.269, 543.122 159.557, 520.089 229.500 C 510.138 259.721, 505.326 289.514, 504.344 327 C 503.213 370.136, 506.981 409.548, 516.010 449 C 521.786 474.239, 534.501 505.331, 547.844 526.846 C 560.938 547.958, 583.031 571.769, 601.760 584.956 C 631.746 606.069, 667.230 619.892, 708 626.343 C 733.241 630.337, 735.672 630.500, 770 630.500 C 805.296 630.500, 807.506 630.331, 830.693 625.862 C 865.902 619.076, 899.773 603.804, 929.050 581.514 C 939.204 573.783, 962.065 550.434, 969.696 540 C 985.561 518.307, 1000.154 489.816, 1007.943 465.324 C 1010.471 457.375, 1016.540 457.998, 936.781 458.015 C 897.577 458.024, 864.996 458.361, 864.380 458.765 C 863.764 459.169, 862.123 462.325, 860.734 465.779 C 856.745 475.699, 852.052 482.796, 844.438 490.424 C 824.440 510.460, 790.467 520.928, 755.250 517.907 C 727.998 515.569, 707.202 506.647, 689.190 489.564 C 670.604 471.938, 659.034 451.333, 652.028 423.385 C 649.178 412.016, 645.652 387.373, 646.645 385.766 C 646.905 385.345, 730.311 385, 831.992 385 L 1016.865 385 1017.522 382.930 C 1018.680 379.282, 1015.979 329.551, 1013.452 308 C 1009.399 273.430, 1001.966 240.787, 992.049 214 C 963.972 138.163, 913.025 90.943, 839.500 72.609 C 827.416 69.596, 821.948 68.617, 802.615 66.009 C 784.829 63.608, 744.983 63.372, 728.500 65.568 M 1791.500 65.545 C 1758.490 69.159, 1740.137 72.775, 1718.065 80.016 C 1682.826 91.576, 1657.758 106.444, 1638.511 127.200 C 1623.558 143.323, 1614.542 160.491, 1608.415 184.500 C 1605.754 194.932, 1605.607 196.662, 1605.586 218 C 1605.560 244.894, 1607.391 257.512, 1614.219 277.500 C 1622.092 300.541, 1638.968 321.021, 1665 339.123 C 1701.484 364.494, 1760.066 385.954, 1846 405.431 C 1875.481 412.113, 1894.031 417.945, 1908.317 425.025 C 1924.150 432.870, 1931.704 440.694, 1936.152 453.853 C 1937.938 459.136, 1938.401 462.758, 1938.410 471.500 C 1938.421 481.991, 1938.265 482.815, 1935.051 489.296 C 1927.776 503.965, 1910.437 514.043, 1882.339 519.937 C 1855.940 525.475, 1822.798 525.227, 1799 519.315 C 1759.321 509.456, 1735.489 485.719, 1732.421 453 C 1732.034 448.875, 1731.219 445.169, 1730.609 444.765 C 1729.999 444.361, 1697.198 444.024, 1657.719 444.015 C 1593.883 444.002, 1585.872 444.171, 1585.344 445.546 C 1584.533 447.660, 1586.783 467.511, 1589.079 478.500 C 1592.053 492.728, 1597.379 507.884, 1604.049 521.098 C 1612.634 538.104, 1631.192 560.674, 1647.644 574.118 C 1680.087 600.628, 1725.850 619.376, 1775.500 626.498 C 1781.550 627.365, 1789.650 628.621, 1793.500 629.288 C 1803.557 631.029, 1881.540 630.955, 1893 629.193 C 1897.675 628.474, 1906 627.210, 1911.500 626.383 C 1967.168 618.014, 2009.386 597.978, 2039.763 565.509 C 2062.160 541.572, 2075.235 514.070, 2078.978 483.026 C 2080.245 472.520, 2080.257 450.774, 2079.004 437.500 C 2076.325 409.123, 2069.140 387.376, 2057.059 371.079 C 2035.496 341.993, 1999.426 323.306, 1927.500 303.958 C 1925.850 303.514, 1919.550 301.733, 1913.500 300 C 1907.450 298.267, 1901.150 296.486, 1899.500 296.042 C 1893.877 294.530, 1863.520 285.939, 1857 284.013 C 1853.425 282.958, 1842.400 279.808, 1832.500 277.015 C 1780.064 262.217, 1754.476 248.905, 1746.297 232.166 C 1743.784 227.022, 1743.529 225.487, 1743.529 215.500 C 1743.529 205.577, 1743.793 203.959, 1746.231 198.974 C 1754.397 182.275, 1773.226 174.061, 1810.269 171.041 C 1827.326 169.650, 1836.954 169.754, 1852.500 171.497 C 1871.247 173.599, 1877.972 175.401, 1891 181.810 C 1904.632 188.517, 1917.076 203.373, 1922.538 219.461 C 1924.841 226.242, 1927 234.720, 1927 236.977 C 1927 238.011, 1927.707 239.564, 1928.571 240.429 C 1929.968 241.826, 1937.504 242, 1996.449 242 C 2051.134 242, 2062.953 241.762, 2063.884 240.640 C 2066.081 237.993, 2060.752 205.893, 2055.050 187.427 C 2044.721 153.978, 2022.080 122.236, 1994.473 102.502 C 1985.655 96.198, 1965.848 85.624, 1957 82.497 C 1918.927 69.039, 1884.387 63.915, 1833.092 64.116 C 1816.276 64.181, 1798.319 64.798, 1791.500 65.545 M 2159.200 69.200 C 2158.272 70.128, 2158 133.459, 2158 348.165 C 2158 621.759, 2158.029 625.945, 2159.934 626.965 C 2162.640 628.413, 2712.360 628.413, 2715.066 626.965 C 2716.971 625.945, 2717 621.753, 2717 347.572 C 2717 94.668, 2716.855 69.158, 2715.418 68.607 C 2714.548 68.273, 2589.313 68, 2437.118 68 C 2223.226 68, 2160.128 68.272, 2159.200 69.200 M 35.116 79.361 C 34.295 80.349, 34.054 95.856, 34.241 135.613 L 34.500 190.500 161.500 191 C 264.473 191.405, 288.450 191.744, 288.237 192.790 C 288.023 193.837, 253.216 234.419, 236.560 253.039 C 234.327 255.536, 224.175 267.209, 214 278.980 C 203.825 290.751, 186.050 311.243, 174.500 324.518 C 162.950 337.794, 146.525 356.704, 138 366.542 C 129.475 376.379, 118.176 389.394, 112.891 395.464 C 107.606 401.534, 83.414 429.390, 59.132 457.366 L 14.983 508.232 15.241 562.366 L 15.500 616.500 247.500 616.500 L 479.500 616.500 479.500 559 L 479.500 501.500 339.250 501.247 C 245.676 501.077, 199 500.657, 199 499.983 C 199 499.428, 204.974 492.342, 212.276 484.237 C 219.578 476.132, 240.605 452.625, 259.001 432 C 277.397 411.375, 309.347 375.600, 330 352.500 C 350.652 329.400, 376.764 300.171, 388.025 287.546 C 442.970 225.950, 452.143 215.685, 461.712 205.091 L 472.016 193.681 471.758 136.091 L 471.500 78.500 253.874 78.248 C 70.982 78.036, 36.068 78.213, 35.116 79.361 M 1062.089 79.393 C 1060.415 81.409, 1061.124 450.975, 1062.823 462.500 C 1067.440 493.819, 1073.014 512.230, 1085.225 536.500 C 1100.734 567.324, 1127.300 594.783, 1157 610.686 C 1163.365 614.094, 1178.655 620.739, 1183.311 622.121 C 1191.220 624.468, 1205.145 627.868, 1212 629.125 C 1221.724 630.908, 1271.978 631.045, 1280 629.311 C 1283.025 628.657, 1289.325 627.348, 1294 626.403 C 1329.237 619.278, 1360.202 602.165, 1385.596 575.781 C 1394.654 566.371, 1409 548.020, 1409 545.844 C 1409 545.380, 1409.669 545, 1410.487 545 C 1411.771 545, 1412.011 549.892, 1412.237 580.750 L 1412.500 616.500 1479.500 616.500 L 1546.500 616.500 1546.752 348.605 C 1546.937 151.403, 1546.707 80.352, 1545.879 79.355 C 1544.954 78.239, 1532.608 78, 1475.937 78 C 1433.809 78, 1406.892 78.366, 1406.534 78.945 C 1406.213 79.465, 1405.967 148.781, 1405.987 232.982 C 1406.025 387.635, 1405.676 405.710, 1402.327 422.500 C 1394.908 459.697, 1374.933 488.158, 1346.900 501.470 C 1317.494 515.435, 1271.816 515.456, 1245.623 501.516 C 1228.269 492.282, 1215.067 475.184, 1209.317 454.500 C 1204.401 436.814, 1204.673 447.083, 1204.067 256.500 L 1203.500 78.500 1133.378 78.243 C 1074.108 78.026, 1063.075 78.204, 1062.089 79.393 M 2545 121.166 C 2538.675 126.709, 2527.200 136.686, 2519.500 143.339 C 2511.800 149.992, 2496.133 163.549, 2484.685 173.467 C 2473.237 183.385, 2461.689 193.300, 2459.021 195.500 C 2456.354 197.700, 2447.270 205.594, 2438.836 213.042 C 2423.481 226.600, 2372.741 270.621, 2353 287.511 C 2347.225 292.452, 2342.275 296.721, 2342 296.997 C 2340.739 298.265, 2323.479 313.289, 2288 344.002 C 2266.825 362.332, 2249.500 377.818, 2249.500 378.415 C 2249.500 379.184, 2274.008 379.574, 2333.750 379.756 C 2405.372 379.973, 2418 380.222, 2418 381.418 C 2418 382.192, 2415.474 387.702, 2412.386 393.663 C 2401.716 414.263, 2369.169 477.929, 2345.501 524.500 C 2336.836 541.550, 2326.878 560.980, 2323.373 567.678 C 2317.189 579.496, 2316.019 582.526, 2317.909 581.833 C 2318.705 581.542, 2392.631 517.994, 2451.497 467 C 2462.607 457.375, 2477.710 444.325, 2485.057 438 C 2492.405 431.675, 2502.297 423.125, 2507.040 419 C 2511.783 414.875, 2521.665 406.325, 2529 400 C 2545.506 385.767, 2558.502 374.510, 2567 367.086 C 2570.575 363.962, 2584.975 351.550, 2599 339.502 C 2613.025 327.454, 2624.645 317.013, 2624.823 316.298 C 2625.086 315.242, 2609.423 315, 2540.632 315 C 2485.134 315, 2455.905 314.655, 2455.497 313.996 C 2454.950 313.111, 2460.491 301.916, 2479.501 265.500 C 2482.372 260, 2489.567 246.050, 2495.490 234.500 C 2501.413 222.950, 2507.498 211.250, 2509.013 208.500 C 2511.782 203.475, 2518.704 190.065, 2540.502 147.500 C 2546.980 134.850, 2553.792 121.702, 2555.640 118.282 C 2557.488 114.862, 2559 111.824, 2559 111.532 C 2559 109.635, 2555.081 112.332, 2545 121.166 M 746 177.677 C 721.974 181.563, 704.660 190.370, 687.405 207.481 C 672.152 222.606, 663.692 237.192, 656.944 260 C 653.740 270.828, 650.349 290.861, 651.300 293.340 C 651.888 294.873, 660.303 295, 760.910 295 C 824.677 295, 870.113 294.625, 870.440 294.097 C 871.459 292.448, 868.941 272.658, 866.357 262 C 860.785 239.026, 850.947 221.101, 835.833 206.388 C 820.113 191.085, 802.837 182.523, 779.619 178.528 C 771.584 177.146, 752.302 176.657, 746 177.677" stroke="none" fill="#fb0404" fill-rule="evenodd"/><path d="M -0 350 L -0 700.001 1366.250 699.750 L 2732.500 699.500 2732.751 349.750 L 2733.003 0 1366.501 0 L 0 0 -0 350 M 0.494 350.500 C 0.494 543, 0.609 621.899, 0.750 525.831 C 0.891 429.763, 0.891 272.263, 0.750 175.831 C 0.609 79.399, 0.494 158, 0.494 350.500 M 728.500 65.568 C 694.378 70.116, 676.460 74.420, 653.448 83.598 C 589.086 109.269, 543.122 159.557, 520.089 229.500 C 510.138 259.721, 505.326 289.514, 504.344 327 C 503.213 370.136, 506.981 409.548, 516.010 449 C 521.786 474.239, 534.501 505.331, 547.844 526.846 C 560.938 547.958, 583.031 571.769, 601.760 584.956 C 631.746 606.069, 667.230 619.892, 708 626.343 C 733.241 630.337, 735.672 630.500, 770 630.500 C 805.296 630.500, 807.506 630.331, 830.693 625.862 C 865.902 619.076, 899.773 603.804, 929.050 581.514 C 939.204 573.783, 962.065 550.434, 969.696 540 C 985.561 518.307, 1000.154 489.816, 1007.943 465.324 C 1010.471 457.375, 1016.540 457.998, 936.781 458.015 C 897.577 458.024, 864.996 458.361, 864.380 458.765 C 863.764 459.169, 862.123 462.325, 860.734 465.779 C 856.745 475.699, 852.052 482.796, 844.438 490.424 C 824.440 510.460, 790.467 520.928, 755.250 517.907 C 727.998 515.569, 707.202 506.647, 689.190 489.564 C 670.604 471.938, 659.034 451.333, 652.028 423.385 C 649.178 412.016, 645.652 387.373, 646.645 385.766 C 646.905 385.345, 730.311 385, 831.992 385 L 1016.865 385 1017.522 382.930 C 1018.680 379.282, 1015.979 329.551, 1013.452 308 C 1009.399 273.430, 1001.966 240.787, 992.049 214 C 963.972 138.163, 913.025 90.943, 839.500 72.609 C 827.416 69.596, 821.948 68.617, 802.615 66.009 C 784.829 63.608, 744.983 63.372, 728.500 65.568 M 1791.500 65.545 C 1758.490 69.159, 1740.137 72.775, 1718.065 80.016 C 1682.826 91.576, 1657.758 106.444, 1638.511 127.200 C 1623.558 143.323, 1614.542 160.491, 1608.415 184.500 C 1605.754 194.932, 1605.607 196.662, 1605.586 218 C 1605.560 244.894, 1607.391 257.512, 1614.219 277.500 C 1622.092 300.541, 1638.968 321.021, 1665 339.123 C 1701.484 364.494, 1760.066 385.954, 1846 405.431 C 1875.481 412.113, 1894.031 417.945, 1908.317 425.025 C 1924.150 432.870, 1931.704 440.694, 1936.152 453.853 C 1937.938 459.136, 1938.401 462.758, 1938.410 471.500 C 1938.421 481.991, 1938.265 482.815, 1935.051 489.296 C 1927.776 503.965, 1910.437 514.043, 1882.339 519.937 C 1855.940 525.475, 1822.798 525.227, 1799 519.315 C 1759.321 509.456, 1735.489 485.719, 1732.421 453 C 1732.034 448.875, 1731.219 445.169, 1730.609 444.765 C 1729.999 444.361, 1697.198 444.024, 1657.719 444.015 C 1593.883 444.002, 1585.872 444.171, 1585.344 445.546 C 1584.533 447.660, 1586.783 467.511, 1589.079 478.500 C 1592.053 492.728, 1597.379 507.884, 1604.049 521.098 C 1612.634 538.104, 1631.192 560.674, 1647.644 574.118 C 1680.087 600.628, 1725.850 619.376, 1775.500 626.498 C 1781.550 627.365, 1789.650 628.621, 1793.500 629.288 C 1803.557 631.029, 1881.540 630.955, 1893 629.193 C 1897.675 628.474, 1906 627.210, 1911.500 626.383 C 1967.168 618.014, 2009.386 597.978, 2039.763 565.509 C 2062.160 541.572, 2075.235 514.070, 2078.978 483.026 C 2080.245 472.520, 2080.257 450.774, 2079.004 437.500 C 2076.325 409.123, 2069.140 387.376, 2057.059 371.079 C 2035.496 341.993, 1999.426 323.306, 1927.500 303.958 C 1925.850 303.514, 1919.550 301.733, 1913.500 300 C 1907.450 298.267, 1901.150 296.486, 1899.500 296.042 C 1893.877 294.530, 1863.520 285.939, 1857 284.013 C 1853.425 282.958, 1842.400 279.808, 1832.500 277.015 C 1780.064 262.217, 1754.476 248.905, 1746.297 232.166 C 1743.784 227.022, 1743.529 225.487, 1743.529 215.500 C 1743.529 205.577, 1743.793 203.959, 1746.231 198.974 C 1754.397 182.275, 1773.226 174.061, 1810.269 171.041 C 1827.326 169.650, 1836.954 169.754, 1852.500 171.497 C 1871.247 173.599, 1877.972 175.401, 1891 181.810 C 1904.632 188.517, 1917.076 203.373, 1922.538 219.461 C 1924.841 226.242, 1927 234.720, 1927 236.977 C 1927 238.011, 1927.707 239.564, 1928.571 240.429 C 1929.968 241.826, 1937.504 242, 1996.449 242 C 2051.134 242, 2062.953 241.762, 2063.884 240.640 C 2066.081 237.993, 2060.752 205.893, 2055.050 187.427 C 2044.721 153.978, 2022.080 122.236, 1994.473 102.502 C 1985.655 96.198, 1965.848 85.624, 1957 82.497 C 1918.927 69.039, 1884.387 63.915, 1833.092 64.116 C 1816.276 64.181, 1798.319 64.798, 1791.500 65.545 M 2159.200 69.200 C 2158.272 70.128, 2158 133.459, 2158 348.165 C 2158 621.759, 2158.029 625.945, 2159.934 626.965 C 2162.640 628.413, 2712.360 628.413, 2715.066 626.965 C 2716.971 625.945, 2717 621.753, 2717 347.572 C 2717 94.668, 2716.855 69.158, 2715.418 68.607 C 2714.548 68.273, 2589.313 68, 2437.118 68 C 2223.226 68, 2160.128 68.272, 2159.200 69.200 M 35.116 79.361 C 34.295 80.349, 34.054 95.856, 34.241 135.613 L 34.500 190.500 161.500 191 C 264.473 191.405, 288.450 191.744, 288.237 192.790 C 288.023 193.837, 253.216 234.419, 236.560 253.039 C 234.327 255.536, 224.175 267.209, 214 278.980 C 203.825 290.751, 186.050 311.243, 174.500 324.518 C 162.950 337.794, 146.525 356.704, 138 366.542 C 129.475 376.379, 118.176 389.394, 112.891 395.464 C 107.606 401.534, 83.414 429.390, 59.132 457.366 L 14.983 508.232 15.241 562.366 L 15.500 616.500 247.500 616.500 L 479.500 616.500 479.500 559 L 479.500 501.500 339.250 501.247 C 245.676 501.077, 199 500.657, 199 499.983 C 199 499.428, 204.974 492.342, 212.276 484.237 C 219.578 476.132, 240.605 452.625, 259.001 432 C 277.397 411.375, 309.347 375.600, 330 352.500 C 350.652 329.400, 376.764 300.171, 388.025 287.546 C 442.970 225.950, 452.143 215.685, 461.712 205.091 L 472.016 193.681 471.758 136.091 L 471.500 78.500 253.874 78.248 C 70.982 78.036, 36.068 78.213, 35.116 79.361 M 1062.089 79.393 C 1060.415 81.409, 1061.124 450.975, 1062.823 462.500 C 1067.440 493.819, 1073.014 512.230, 1085.225 536.500 C 1100.734 567.324, 1127.300 594.783, 1157 610.686 C 1163.365 614.094, 1178.655 620.739, 1183.311 622.121 C 1191.220 624.468, 1205.145 627.868, 1212 629.125 C 1221.724 630.908, 1271.978 631.045, 1280 629.311 C 1283.025 628.657, 1289.325 627.348, 1294 626.403 C 1329.237 619.278, 1360.202 602.165, 1385.596 575.781 C 1394.654 566.371, 1409 548.020, 1409 545.844 C 1409 545.380, 1409.669 545, 1410.487 545 C 1411.771 545, 1412.011 549.892, 1412.237 580.750 L 1412.500 616.500 1479.500 616.500 L 1546.500 616.500 1546.752 348.605 C 1546.937 151.403, 1546.707 80.352, 1545.879 79.355 C 1544.954 78.239, 1532.608 78, 1475.937 78 C 1433.809 78, 1406.892 78.366, 1406.534 78.945 C 1406.213 79.465, 1405.967 148.781, 1405.987 232.982 C 1406.025 387.635, 1405.676 405.710, 1402.327 422.500 C 1394.908 459.697, 1374.933 488.158, 1346.900 501.470 C 1317.494 515.435, 1271.816 515.456, 1245.623 501.516 C 1228.269 492.282, 1215.067 475.184, 1209.317 454.500 C 1204.401 436.814, 1204.673 447.083, 1204.067 256.500 L 1203.500 78.500 1133.378 78.243 C 1074.108 78.026, 1063.075 78.204, 1062.089 79.393 M 2545 121.166 C 2538.675 126.709, 2527.200 136.686, 2519.500 143.339 C 2511.800 149.992, 2496.133 163.549, 2484.685 173.467 C 2473.237 183.385, 2461.689 193.300, 2459.021 195.500 C 2456.354 197.700, 2447.270 205.594, 2438.836 213.042 C 2423.481 226.600, 2372.741 270.621, 2353 287.511 C 2347.225 292.452, 2342.275 296.721, 2342 296.997 C 2340.739 298.265, 2323.479 313.289, 2288 344.002 C 2266.825 362.332, 2249.500 377.818, 2249.500 378.415 C 2249.500 379.184, 2274.008 379.574, 2333.750 379.756 C 2405.372 379.973, 2418 380.222, 2418 381.418 C 2418 382.192, 2415.474 387.702, 2412.386 393.663 C 2401.716 414.263, 2369.169 477.929, 2345.501 524.500 C 2336.836 541.550, 2326.878 560.980, 2323.373 567.678 C 2317.189 579.496, 2316.019 582.526, 2317.909 581.833 C 2318.705 581.542, 2392.631 517.994, 2451.497 467 C 2462.607 457.375, 2477.710 444.325, 2485.057 438 C 2492.405 431.675, 2502.297 423.125, 2507.040 419 C 2511.783 414.875, 2521.665 406.325, 2529 400 C 2545.506 385.767, 2558.502 374.510, 2567 367.086 C 2570.575 363.962, 2584.975 351.550, 2599 339.502 C 2613.025 327.454, 2624.645 317.013, 2624.823 316.298 C 2625.086 315.242, 2609.423 315, 2540.632 315 C 2485.134 315, 2455.905 314.655, 2455.497 313.996 C 2454.950 313.111, 2460.491 301.916, 2479.501 265.500 C 2482.372 260, 2489.567 246.050, 2495.490 234.500 C 2501.413 222.950, 2507.498 211.250, 2509.013 208.500 C 2511.782 203.475, 2518.704 190.065, 2540.502 147.500 C 2546.980 134.850, 2553.792 121.702, 2555.640 118.282 C 2557.488 114.862, 2559 111.824, 2559 111.532 C 2559 109.635, 2555.081 112.332, 2545 121.166 M 746 177.677 C 721.974 181.563, 704.660 190.370, 687.405 207.481 C 672.152 222.606, 663.692 237.192, 656.944 260 C 653.740 270.828, 650.349 290.861, 651.300 293.340 C 651.888 294.873, 660.303 295, 760.910 295 C 824.677 295, 870.113 294.625, 870.440 294.097 C 871.459 292.448, 868.941 272.658, 866.357 262 C 860.785 239.026, 850.947 221.101, 835.833 206.388 C 820.113 191.085, 802.837 182.523, 779.619 178.528 C 771.584 177.146, 752.302 176.657, 746 177.677" stroke="none" fill="#fbf9f9" fill-rule="evenodd"/></svg>